<?xml version="1.0" encoding="UTF-8"?>
<svg version="1.1" xmlns="http://www.w3.org/2000/svg" width="500" height="500">
<path d="M0 0 C0.88490616 -0.00807175 1.76981232 -0.01614349 2.68153381 -0.02445984 C4.56379221 -0.03832681 6.44607603 -0.04903721 8.32836914 -0.05688477 C11.17970371 -0.07396151 14.02983719 -0.11780579 16.88085938 -0.16210938 C34.66663844 -0.31072069 34.66663844 -0.31072069 42.28515625 4.23828125 C42.28515625 4.89828125 42.28515625 5.55828125 42.28515625 6.23828125 C43.41953125 6.52703125 44.55390625 6.81578125 45.72265625 7.11328125 C46.89828125 7.48453125 48.07390625 7.85578125 49.28515625 8.23828125 C49.78015625 9.22828125 49.78015625 9.22828125 50.28515625 10.23828125 C50.86265625 10.48578125 51.44015625 10.73328125 52.03515625 10.98828125 C55.21591594 12.75536997 56.97053268 15.46073297 59.28515625 18.23828125 C61.43496122 19.61082713 61.43496122 19.61082713 63.28515625 20.23828125 C63.28515625 20.89828125 63.28515625 21.55828125 63.28515625 22.23828125 C64.77015625 22.73328125 64.77015625 22.73328125 66.28515625 23.23828125 C68.47265625 25.17578125 68.47265625 25.17578125 70.28515625 27.23828125 C70.28515625 27.89828125 70.28515625 28.55828125 70.28515625 29.23828125 C71.60515625 29.89828125 72.92515625 30.55828125 74.28515625 31.23828125 C74.28515625 31.89828125 74.28515625 32.55828125 74.28515625 33.23828125 C75.00703125 33.48578125 75.72890625 33.73328125 76.47265625 33.98828125 C81.30955972 36.13801613 84.4086416 39.31766331 87.78515625 43.30078125 C90.40735666 46.3827181 92.77693044 48.20720315 96.28515625 50.23828125 C97.50857578 51.68706753 98.7295014 53.13888012 99.90234375 54.62890625 C101.90957398 56.96500471 104.23246205 58.842188 106.59765625 60.8046875 C108.96243171 62.81365184 111.09172728 65.04485228 113.28515625 67.23828125 C115.15104116 68.81469973 117.02981629 70.37095962 118.9296875 71.90625 C119.37699219 72.34582031 119.82429687 72.78539062 120.28515625 73.23828125 C120.28515625 73.89828125 120.28515625 74.55828125 120.28515625 75.23828125 C121.60515625 75.89828125 122.92515625 76.55828125 124.28515625 77.23828125 C124.28515625 77.89828125 124.28515625 78.55828125 124.28515625 79.23828125 C125.60515625 79.89828125 126.92515625 80.55828125 128.28515625 81.23828125 C128.28515625 81.89828125 128.28515625 82.55828125 128.28515625 83.23828125 C129.60515625 83.89828125 130.92515625 84.55828125 132.28515625 85.23828125 C132.28515625 85.89828125 132.28515625 86.55828125 132.28515625 87.23828125 C133.15333984 87.62886719 133.15333984 87.62886719 134.0390625 88.02734375 C136.43711067 89.3202045 138.20734322 90.785532 140.22265625 92.61328125 C142.41270886 94.58068526 144.56640663 96.45256725 146.91015625 98.23828125 C148.93101918 99.94006056 150.42750801 101.5313795 152.09765625 103.55078125 C155.93628177 108.15910546 160.41670384 111.98970627 165.12890625 115.68359375 C166.5609632 116.81167635 167.93012522 118.01875332 169.28515625 119.23828125 C169.28515625 120.22828125 169.28515625 121.21828125 169.28515625 122.23828125 C170.17074219 122.65013672 170.17074219 122.65013672 171.07421875 123.0703125 C177.08895328 126.24770759 182.39085987 131.70353035 186.28515625 137.23828125 C186.28515625 137.89828125 186.28515625 138.55828125 186.28515625 139.23828125 C188.88650609 140.37269075 188.88650609 140.37269075 192.28515625 140.23828125 C196.44533281 137.57836329 199.64322415 134.00859977 202.78515625 130.23828125 C205.43121384 127.06301215 208.28065256 124.51953109 211.421875 121.8515625 C213.42730061 120.16121491 213.42730061 120.16121491 215.66015625 117.80078125 C217.28515625 116.23828125 217.28515625 116.23828125 219.28515625 116.23828125 C219.62546875 115.31015625 219.62546875 115.31015625 219.97265625 114.36328125 C221.67378583 111.60907145 223.33891779 111.41677664 226.28515625 110.23828125 C227.62925887 108.2209292 227.62925887 108.2209292 228.28515625 106.23828125 C228.94515625 106.23828125 229.60515625 106.23828125 230.28515625 106.23828125 C231.27515625 104.25828125 231.27515625 104.25828125 232.28515625 102.23828125 C232.94515625 102.23828125 233.60515625 102.23828125 234.28515625 102.23828125 C235.27515625 100.25828125 235.27515625 100.25828125 236.28515625 98.23828125 C236.94515625 98.23828125 237.60515625 98.23828125 238.28515625 98.23828125 C238.68734375 97.34109375 238.68734375 97.34109375 239.09765625 96.42578125 C240.28433031 94.23980271 241.38114738 92.82495531 243.28515625 91.23828125 C243.94515625 91.23828125 244.60515625 91.23828125 245.28515625 91.23828125 C245.68734375 90.34109375 245.68734375 90.34109375 246.09765625 89.42578125 C247.99677974 85.92739588 249.48551986 84.50482671 253.28515625 83.23828125 C254.29158573 81.90979434 255.29207804 80.57677796 256.28515625 79.23828125 C256.94515625 79.23828125 257.60515625 79.23828125 258.28515625 79.23828125 C258.61515625 78.24828125 258.94515625 77.25828125 259.28515625 76.23828125 C261.22265625 74.05078125 261.22265625 74.05078125 263.28515625 72.23828125 C263.94515625 72.23828125 264.60515625 72.23828125 265.28515625 72.23828125 C265.61515625 71.24828125 265.94515625 70.25828125 266.28515625 69.23828125 C267.88671875 67.625 267.88671875 67.625 269.91015625 65.92578125 C270.63074219 65.3121875 271.35132813 64.69859375 272.09375 64.06640625 C273.45841998 62.92796498 274.82523366 61.79208233 276.1953125 60.66015625 C280.02158626 57.46458695 283.09073687 54.08796614 286.28515625 50.23828125 C288.26472567 48.54739903 290.26460821 46.87997653 292.28515625 45.23828125 C293.19265625 44.31015625 294.10015625 43.38203125 295.03515625 42.42578125 C297.28515625 40.23828125 297.28515625 40.23828125 299.28515625 40.23828125 C299.28515625 39.57828125 299.28515625 38.91828125 299.28515625 38.23828125 C299.94515625 38.23828125 300.60515625 38.23828125 301.28515625 38.23828125 C301.61515625 37.24828125 301.94515625 36.25828125 302.28515625 35.23828125 C303.08953125 34.92890625 303.89390625 34.61953125 304.72265625 34.30078125 C307.42673118 33.47219966 307.42673118 33.47219966 308.59765625 31.11328125 C308.82453125 30.49453125 309.05140625 29.87578125 309.28515625 29.23828125 C309.94515625 29.23828125 310.60515625 29.23828125 311.28515625 29.23828125 C311.94515625 27.91828125 312.60515625 26.59828125 313.28515625 25.23828125 C313.94515625 25.23828125 314.60515625 25.23828125 315.28515625 25.23828125 C315.28515625 24.57828125 315.28515625 23.91828125 315.28515625 23.23828125 C315.92453125 23.13515625 316.56390625 23.03203125 317.22265625 22.92578125 C317.90328125 22.69890625 318.58390625 22.47203125 319.28515625 22.23828125 C319.61515625 21.24828125 319.94515625 20.25828125 320.28515625 19.23828125 C325.75027253 14.23828125 325.75027253 14.23828125 328.28515625 14.23828125 C328.28515625 13.57828125 328.28515625 12.91828125 328.28515625 12.23828125 C329.9296875 10.73046875 329.9296875 10.73046875 332.09765625 9.11328125 C332.80535156 8.57445313 333.51304687 8.035625 334.2421875 7.48046875 C336.28515625 6.23828125 336.28515625 6.23828125 339.28515625 6.23828125 C339.28515625 5.57828125 339.28515625 4.91828125 339.28515625 4.23828125 C340.35056641 3.93083984 340.35056641 3.93083984 341.4375 3.6171875 C342.35660156 3.34777344 343.27570313 3.07835938 344.22265625 2.80078125 C345.13917969 2.53394531 346.05570312 2.26710938 347 1.9921875 C349.22540555 1.44802074 349.22540555 1.44802074 350.28515625 0.23828125 C364.14515625 0.23828125 378.00515625 0.23828125 392.28515625 0.23828125 C392.28515625 103.85828125 392.28515625 207.47828125 392.28515625 314.23828125 C388.28515625 314.23828125 388.28515625 314.23828125 386.5390625 312.69921875 C385.70181641 311.66667969 385.70181641 311.66667969 384.84765625 310.61328125 C384.24179687 309.88238281 383.6359375 309.15148437 383.01171875 308.3984375 C381.98560812 307.11463845 380.95954733 305.83079956 379.93359375 304.546875 C377.02719344 300.95606429 373.83238348 298.18172512 370.28515625 295.23828125 C366.28515625 290.71196546 366.28515625 290.71196546 366.28515625 288.23828125 C365.44984375 287.92890625 365.44984375 287.92890625 364.59765625 287.61328125 C361.99178389 286.06384363 360.42962499 284.16164446 358.5625 281.80078125 C357.17647565 280.04519691 357.17647565 280.04519691 354.91015625 277.92578125 C352.6660709 275.6282653 350.82878219 273.36180427 348.91015625 270.80078125 C346.60184465 267.75685386 344.29573399 265.230712 341.34765625 262.80078125 C340.33703125 261.95515625 339.32640625 261.10953125 338.28515625 260.23828125 C338.28515625 259.57828125 338.28515625 258.91828125 338.28515625 258.23828125 C337.62515625 258.23828125 336.96515625 258.23828125 336.28515625 258.23828125 C336.07890625 257.68140625 335.87265625 257.12453125 335.66015625 256.55078125 C334.33111245 253.96328872 334.33111245 253.96328872 331.24278259 252.06086731 C328.57146 249.87000133 328.31798285 249.39400794 327.55690002 245.78349304 C327.53661305 244.44390994 327.54910468 243.10357236 327.58813477 241.7644043 C327.58565231 241.02859634 327.58316986 240.29278839 327.58061218 239.53468323 C327.57969529 237.10540228 327.62151594 234.67887711 327.6640625 232.25 C327.67273047 230.54670783 327.67886847 228.84340108 327.68260193 227.14009094 C327.6998304 222.64945539 327.75387921 218.15996315 327.81488037 213.66973877 C327.85814622 210.04757305 327.87597537 206.42550726 327.89215183 202.80313396 C327.95852275 188.17818946 328.05782943 173.60467011 329.05329895 159.01008606 C329.41346971 153.15090533 329.51570497 147.29441138 329.6015625 141.42578125 C329.63273415 139.59527222 329.63273415 139.59527222 329.66453552 137.7277832 C329.72898319 133.89799636 329.78841898 130.06815185 329.84765625 126.23828125 C329.89094161 123.61327571 329.93455873 120.98827563 329.97851562 118.36328125 C330.08455397 111.98833902 330.18649781 105.61334174 330.28515625 99.23828125 C329.16471362 100.02064791 328.04669089 100.80648086 326.9296875 101.59375 C326.30682861 102.03098389 325.68396973 102.46821777 325.04223633 102.91870117 C323.10828546 104.3066315 323.10828546 104.3066315 320.97265625 106.55078125 C320.41578125 107.10765625 319.85890625 107.66453125 319.28515625 108.23828125 C318.62515625 108.23828125 317.96515625 108.23828125 317.28515625 108.23828125 C316.95515625 109.22828125 316.62515625 110.21828125 316.28515625 111.23828125 C314.5996373 112.42805933 312.91096252 113.61389617 311.19921875 114.765625 C308.54368878 116.80875724 306.59631614 119.24942101 304.546875 121.8828125 C303.92232422 122.55376953 303.92232422 122.55376953 303.28515625 123.23828125 C302.62515625 123.23828125 301.96515625 123.23828125 301.28515625 123.23828125 C300.97578125 124.10453125 300.97578125 124.10453125 300.66015625 124.98828125 C299.28515625 127.23828125 299.28515625 127.23828125 296.53515625 129.05078125 C293.23543068 131.27175039 291.26993994 133.4698712 288.7890625 136.5078125 C286.5374094 139.09867568 283.95400506 141.08048859 281.28515625 143.23828125 C279.61428969 144.90073741 277.94817196 146.56797161 276.28515625 148.23828125 C274.40193571 150.02252201 272.50600089 151.79343796 270.59765625 153.55078125 C269.64503906 154.43378906 268.69242187 155.31679687 267.7109375 156.2265625 C265.28515625 158.23828125 265.28515625 158.23828125 263.28515625 158.23828125 C262.62515625 159.55828125 261.96515625 160.87828125 261.28515625 162.23828125 C260.62515625 162.23828125 259.96515625 162.23828125 259.28515625 162.23828125 C258.95515625 163.22828125 258.62515625 164.21828125 258.28515625 165.23828125 C256.22265625 165.92578125 256.22265625 165.92578125 254.28515625 166.23828125 C254.28515625 167.22828125 254.28515625 168.21828125 254.28515625 169.23828125 C253.29515625 169.56828125 252.30515625 169.89828125 251.28515625 170.23828125 C250.62515625 171.22828125 249.96515625 172.21828125 249.28515625 173.23828125 C248.62515625 173.23828125 247.96515625 173.23828125 247.28515625 173.23828125 C246.62515625 174.55828125 245.96515625 175.87828125 245.28515625 177.23828125 C244.62515625 177.23828125 243.96515625 177.23828125 243.28515625 177.23828125 C242.95515625 178.22828125 242.62515625 179.21828125 242.28515625 180.23828125 C240.68359375 181.8515625 240.68359375 181.8515625 238.66015625 183.55078125 C237.57927734 184.46923828 237.57927734 184.46923828 236.4765625 185.40625 C235.75339844 186.01082031 235.03023437 186.61539063 234.28515625 187.23828125 C231.02355313 189.99296855 227.80569053 192.71774697 224.78515625 195.73828125 C221.78398495 198.73945255 218.71392637 201.72500139 215.28515625 204.23828125 C214.62515625 204.23828125 213.96515625 204.23828125 213.28515625 204.23828125 C212.95515625 205.22828125 212.62515625 206.21828125 212.28515625 207.23828125 C210.54296875 208.37109375 210.54296875 208.37109375 208.41015625 209.36328125 C207.36214844 209.86214844 207.36214844 209.86214844 206.29296875 210.37109375 C201.40095479 212.48398694 197.21309713 212.4218262 191.97265625 212.42578125 C191.13025391 212.43802734 190.28785156 212.45027344 189.41992188 212.46289062 C184.63297515 212.4741188 180.78237624 212.09439325 176.28515625 210.23828125 C176.28515625 209.57828125 176.28515625 208.91828125 176.28515625 208.23828125 C175.56972656 208.15449219 174.85429687 208.07070313 174.1171875 207.984375 C170.65935649 207.07341538 168.72959262 205.5594269 165.97265625 203.30078125 C165.08964844 202.59050781 164.20664063 201.88023437 163.296875 201.1484375 C162.63300781 200.51808594 161.96914062 199.88773438 161.28515625 199.23828125 C161.28515625 198.57828125 161.28515625 197.91828125 161.28515625 197.23828125 C159.96515625 196.57828125 158.64515625 195.91828125 157.28515625 195.23828125 C157.28515625 194.57828125 157.28515625 193.91828125 157.28515625 193.23828125 C155.96515625 192.57828125 154.64515625 191.91828125 153.28515625 191.23828125 C153.28515625 190.57828125 153.28515625 189.91828125 153.28515625 189.23828125 C151.96515625 188.57828125 150.64515625 187.91828125 149.28515625 187.23828125 C149.28515625 186.57828125 149.28515625 185.91828125 149.28515625 185.23828125 C148.39957031 185.09132813 148.39957031 185.09132813 147.49609375 184.94140625 C144.84651221 184.09878315 143.78816343 183.01617633 141.91015625 180.98828125 C139.74160582 178.713384 137.67076527 176.73673759 135.22265625 174.73828125 C132.91579799 172.77499762 131.23186468 171.05117203 129.34765625 168.73828125 C126.82705515 165.68842008 124.16609841 163.56587308 120.8984375 161.36328125 C118.75772707 159.8704856 116.98723707 158.212695 115.28515625 156.23828125 C115.28515625 155.57828125 115.28515625 154.91828125 115.28515625 154.23828125 C113.30515625 153.24828125 113.30515625 153.24828125 111.28515625 152.23828125 C111.28515625 151.57828125 111.28515625 150.91828125 111.28515625 150.23828125 C109.30515625 149.24828125 109.30515625 149.24828125 107.28515625 148.23828125 C107.28515625 147.57828125 107.28515625 146.91828125 107.28515625 146.23828125 C106.29515625 145.90828125 105.30515625 145.57828125 104.28515625 145.23828125 C103.26496052 144.25889335 102.2636582 143.25932676 101.28515625 142.23828125 C100.62515625 141.90828125 99.96515625 141.57828125 99.28515625 141.23828125 C99.28515625 140.57828125 99.28515625 139.91828125 99.28515625 139.23828125 C97.30515625 138.24828125 97.30515625 138.24828125 95.28515625 137.23828125 C95.28515625 136.57828125 95.28515625 135.91828125 95.28515625 135.23828125 C94.72828125 134.99078125 94.17140625 134.74328125 93.59765625 134.48828125 C88.76281163 131.87485173 85.13870602 128.09183102 81.28515625 124.23828125 C80.1247672 123.25168319 78.95773801 122.2728566 77.78515625 121.30078125 C75.47540125 119.35860016 73.77846638 117.61466295 71.84765625 115.23828125 C69.1221401 112.04743307 66.29607385 109.89828374 62.859375 107.53515625 C62.08013672 106.89320313 62.08013672 106.89320313 61.28515625 106.23828125 C61.28515625 105.57828125 61.28515625 104.91828125 61.28515625 104.23828125 C58.90353616 102.82442214 58.90353616 102.82442214 56.28515625 102.23828125 C56.28515625 102.89828125 56.28515625 103.55828125 56.28515625 104.23828125 C55.62515625 104.23828125 54.96515625 104.23828125 54.28515625 104.23828125 C54.28737686 105.54086884 54.28959747 106.84345642 54.29188538 108.18551636 C54.31239689 120.62478251 54.32726055 133.06404512 54.33696842 145.50332451 C54.3421275 151.8943135 54.34909368 158.28528856 54.3605957 164.67626953 C54.38930386 181.19721462 54.38563165 197.71756153 54.28515625 214.23828125 C54.27932274 215.20617081 54.27348923 216.17406036 54.26747894 217.17127991 C54.23271709 222.2217107 54.17471751 227.27069179 54.07235527 232.32022476 C54.04538561 233.74783874 54.02468219 235.17558773 54.01088142 236.60338974 C53.99044073 238.50949345 53.94222652 240.41524052 53.89233398 242.32080078 C53.87178452 243.35544464 53.85123505 244.3900885 53.83006287 245.45608521 C53.14573712 248.95013047 51.67086976 250.64467491 49.28515625 253.23828125 C48.74890625 253.83640625 48.21265625 254.43453125 47.66015625 255.05078125 C46.28515625 256.23828125 46.28515625 256.23828125 44.28515625 256.23828125 C44.05828125 256.96015625 43.83140625 257.68203125 43.59765625 258.42578125 C42.02597838 261.7936624 39.965581 263.68860892 37.28515625 266.23828125 C36.72828125 267.00140625 36.17140625 267.76453125 35.59765625 268.55078125 C34.94796875 269.38609375 34.94796875 269.38609375 34.28515625 270.23828125 C33.62515625 270.23828125 32.96515625 270.23828125 32.28515625 270.23828125 C32.03765625 270.79515625 31.79015625 271.35203125 31.53515625 271.92578125 C30.05590807 274.66239038 28.35048186 276.91478994 26.28515625 279.23828125 C25.62515625 279.23828125 24.96515625 279.23828125 24.28515625 279.23828125 C23.89457031 280.10453125 23.89457031 280.10453125 23.49609375 280.98828125 C20.63709377 286.30048767 15.77563529 291.24674433 11.28515625 295.23828125 C10.62515625 295.23828125 9.96515625 295.23828125 9.28515625 295.23828125 C8.62515625 296.88828125 7.96515625 298.53828125 7.28515625 300.23828125 C6.62515625 300.23828125 5.96515625 300.23828125 5.28515625 300.23828125 C4.29515625 302.21828125 4.29515625 302.21828125 3.28515625 304.23828125 C2.62515625 304.23828125 1.96515625 304.23828125 1.28515625 304.23828125 C0.94484375 305.04265625 0.94484375 305.04265625 0.59765625 305.86328125 C-1.14866431 309.02328988 -3.35512865 311.50597955 -5.71484375 314.23828125 C-7.03484375 313.90828125 -8.35484375 313.57828125 -9.71484375 313.23828125 C-9.73770856 273.50834838 -9.75534118 233.77841637 -9.76590908 194.04847825 C-9.76715986 189.36312937 -9.76845417 184.6777805 -9.76977539 179.99243164 C-9.7700377 179.05962214 -9.77030001 178.12681264 -9.77057027 177.16573619 C-9.7749273 162.04120437 -9.78281503 146.91667633 -9.79199655 131.79214675 C-9.80133217 116.28498199 -9.80689917 100.77781921 -9.80893224 85.27065176 C-9.81030766 75.69390324 -9.81465926 66.1171654 -9.82276022 56.54042017 C-9.82802655 49.98254817 -9.8296483 43.42468173 -9.82834513 36.86680777 C-9.82770157 33.07740292 -9.82872124 29.28801682 -9.83404922 25.49861526 C-9.83977002 21.40015182 -9.83784497 17.30172882 -9.83509827 13.20326233 C-9.83801111 11.9921993 -9.84092395 10.78113628 -9.84392506 9.53337437 C-9.84193401 8.4445639 -9.83994296 7.35575343 -9.83789158 6.23394871 C-9.8382713 5.28654648 -9.83865102 4.33914426 -9.83904225 3.36303288 C-9.54363926 -1.69063521 -3.90590702 0.03353819 0 0 Z " fill="#000000" transform="translate(59.71484375,91.76171875)"/>
<path d="" fill="#000000" transform="translate(0,0)"/>
</svg>
